<?xml version="1.0" standalone="no"?>
<!DOCTYPE svg PUBLIC "-//W3C//DTD SVG 20010904//EN"
 "http://www.w3.org/TR/2001/REC-SVG-20010904/DTD/svg10.dtd">
<svg version="1.0" xmlns="http://www.w3.org/2000/svg"
 width="1135.000000pt" height="1135.000000pt" viewBox="0 0 1135.000000 1135.000000"
 preserveAspectRatio="xMidYMid meet">
<metadata>
Created by potrace 1.11, written by Peter Selinger 2001-2013
</metadata>
<g transform="translate(0.000000,1135.000000) scale(0.100000,-0.100000)"
fill="#000000" stroke="none">
<path d="M1638 10389 c-12 -7 -16 -9485 -5 -9496 9 -8 3771 -7 3937 1 74 4
151 9 170 11 19 1 71 6 115 10 44 3 87 8 95 10 8 2 40 6 71 10 31 3 65 7 75 9
11 2 42 7 69 10 43 6 145 24 225 41 36 7 122 25 145 29 11 3 49 12 85 21 36 9
83 21 105 26 185 46 678 219 710 250 5 5 14 9 21 9 14 0 268 122 369 178 173
95 439 263 535 339 180 141 236 186 290 232 91 79 354 341 431 431 35 41 66
77 69 80 3 3 33 41 68 85 34 44 67 87 74 95 27 31 143 198 198 285 308 486
514 999 634 1580 13 66 27 140 31 165 3 25 12 88 20 140 8 52 17 127 20 165 4
39 8 86 10 105 22 198 22 687 0 880 -2 19 -6 62 -10 95 -13 141 -46 363 -67
455 -5 25 -12 58 -15 74 -5 31 -62 258 -86 346 -29 104 -135 405 -171 485 -13
28 -31 70 -42 95 -38 91 -182 368 -249 480 -193 322 -388 573 -657 845 -87 88
-189 186 -227 218 -37 32 -76 66 -87 75 -10 10 -75 61 -144 114 -423 323 -874
561 -1399 739 -102 35 -297 93 -351 105 -11 2 -28 6 -37 8 -202 50 -427 94
-563 111 -43 5 -94 12 -150 20 -14 2 -61 7 -105 10 -44 4 -91 8 -105 10 -116
17 -4075 30 -4102 14z m3847 -1893 c115 -7 151 -10 250 -26 33 -5 78 -12 100
-16 187 -28 481 -117 675 -204 129 -59 243 -119 332 -177 66 -42 216 -151 251
-181 255 -221 419 -413 576 -675 58 -96 171 -329 191 -392 7 -22 16 -44 20
-50 4 -5 13 -26 18 -45 6 -19 22 -73 37 -120 14 -47 28 -93 31 -102 2 -10 6
-26 8 -35 27 -106 63 -299 72 -378 3 -27 7 -61 9 -74 25 -149 25 -535 0 -801
-7 -71 -47 -308 -59 -348 -3 -9 -7 -29 -10 -43 -9 -55 -80 -280 -121 -384 -76
-196 -224 -469 -322 -595 -111 -143 -155 -193 -257 -295 -131 -130 -135 -134
-258 -228 -127 -96 -288 -193 -446 -269 -78 -37 -147 -68 -153 -68 -5 0 -17
-4 -27 -10 -71 -39 -433 -139 -567 -156 -22 -3 -46 -7 -53 -9 -7 -3 -40 -7
-75 -10 -34 -3 -72 -8 -84 -11 -67 -13 -288 -17 -1073 -18 l-865 -1 -1 2862
c-1 2550 1 2862 14 2865 30 6 1678 0 1787 -6z"/>
</g>
</svg>
